name C:\Users\u0150099\Documents\master_thesis\3dpredictsim\Results\debug\Fal_s1_mtjc2_sc_cspx10_oy2_ATx70_Fpsl10_MTc2_MTPm_k1_d01_MTJm_nl_MG_exp5_table_d01_PF_Natali2010_x3_ls146_lTs125_Fpsl10_ig21_wAk5e+04_wa2e+03_wpMnD1e+03.mot
datacolumns 128
datarows 4
range 0.00000000 0.03245513
endheader
time	pelvis_tilt	pelvis_list	pelvis_rotation	pelvis_tx	pelvis_ty	pelvis_tz	hip_flexion_l	hip_adduction_l	hip_rotation_l	hip_flexion_r	hip_adduction_r	hip_rotation_r	knee_angle_l	knee_angle_r	ankle_angle_l	ankle_angle_r	subtalar_angle_l	subtalar_angle_r	mtj_angle_l	mtj_angle_r	mtp_angle_l	mtp_angle_r	lumbar_extension	lumbar_bending	lumbar_rotation	arm_flex_l	arm_add_l	arm_rot_l	arm_flex_r	arm_add_r	arm_rot_r	elbow_flex_l	elbow_flex_r	pro_sup_l	pro_sup_r	glut_med1_l/activation	glut_med2_l/activation	glut_med3_l/activation	glut_min1_l/activation	glut_min2_l/activation	glut_min3_l/activation	semimem_l/activation	semiten_l/activation	bifemlh_l/activation	bifemsh_l/activation	sar_l/activation	add_long_l/activation	add_brev_l/activation	add_mag1_l/activation	add_mag2_l/activation	add_mag3_l/activation	tfl_l/activation	pect_l/activation	grac_l/activation	glut_max1_l/activation	glut_max2_l/activation	glut_max3_l/activation	iliacus_l/activation	psoas_l/activation	quad_fem_l/activation	gem_l/activation	peri_l/activation	rect_fem_l/activation	vas_med_l/activation	vas_int_l/activation	vas_lat_l/activation	med_gas_l/activation	lat_gas_l/activation	soleus_l/activation	tib_post_l/activation	flex_dig_l/activation	flex_hal_l/activation	tib_ant_l/activation	per_brev_l/activation	per_long_l/activation	per_tert_l/activation	ext_dig_l/activation	ext_hal_l/activation	ercspn_l/activation	intobl_l/activation	extobl_l/activation	glut_med1_r/activation	glut_med2_r/activation	glut_med3_r/activation	glut_min1_r/activation	glut_min2_r/activation	glut_min3_r/activation	semimem_r/activation	semiten_r/activation	bifemlh_r/activation	bifemsh_r/activation	sar_r/activation	add_long_r/activation	add_brev_r/activation	add_mag1_r/activation	add_mag2_r/activation	add_mag3_r/activation	tfl_r/activation	pect_r/activation	grac_r/activation	glut_max1_r/activation	glut_max2_r/activation	glut_max3_r/activation	iliacus_r/activation	psoas_r/activation	quad_fem_r/activation	gem_r/activation	peri_r/activation	rect_fem_r/activation	vas_med_r/activation	vas_int_r/activation	vas_lat_r/activation	med_gas_r/activation	lat_gas_r/activation	soleus_r/activation	tib_post_r/activation	flex_dig_r/activation	flex_hal_r/activation	tib_ant_r/activation	per_brev_r/activation	per_long_r/activation	per_tert_r/activation	ext_dig_r/activation	ext_hal_r/activation	ercspn_r/activation	intobl_r/activation	extobl_r/activation	
          0.00000000	         -2.92645480	         -1.40097929	          3.12397372	          0.00000000	          0.90827005	         -0.00345018	        -17.13103127	          1.84299234	         10.17888452	         28.95490116	          2.87508753	         -2.35990765	        -10.03391855	        -10.06118446	          5.51812941	          7.53091391	          0.51073308	          0.01276065	         -1.68904546	          1.52019628	         17.93896534	         -3.08078248	         -3.93225264	          0.42351541	         -1.52851526	          1.69136824	        -14.46087991	         19.33758532	         -3.10918314	        -13.45038185	          7.60041240	         49.30942672	         20.67139309	         86.51662706	         86.51662706	          0.41255860	          0.05902149	          0.05000128	          0.57763143	          0.18619012	          0.08100867	          0.05003048	          0.05000398	          0.05000282	          0.07396555	          0.09703855	          0.05000408	          0.05000346	          0.05000664	          0.05002061	          0.05001650	          0.50577178	          0.05001680	          0.05000694	          0.05002801	          0.05001677	          0.05001372	          0.38239702	          0.77242958	          0.05000154	          0.05000665	          0.05000153	          0.35802511	          0.10287051	          0.10987148	          0.08786663	          0.40454898	          0.46956830	          0.30900349	          0.42170582	          0.27430501	          0.47167509	          0.05000028	          0.06965567	          0.22211350	          0.05000179	          0.05000072	          0.09703720	          0.05000035	          0.05000050	          0.05000047	          0.05000766	          0.05000539	          0.05901537	          0.05000257	          0.05000380	          0.05001206	          0.36167269	          0.06965642	          0.14940523	          0.05090258	          0.05001800	          0.10438373	          0.16146172	          0.11872110	          0.16276229	          0.15807374	          0.05897079	          0.05009533	          0.09155524	          0.05903684	          0.09578720	          0.12092582	          0.05000285	          0.05000522	          0.16764290	          0.05001405	          0.05000524	          0.05000299	          0.05004591	          0.05004122	          0.05003063	          0.05741043	          0.05000290	          0.05000057	          0.05000400	          0.09029353	          0.05001282	          0.31948575	          0.05000997	          0.13568352	          0.38185515	          0.60899916	          0.34380140	          0.05903945	          0.07818289	          0.11094128	
          0.01081838	         -2.92948578	         -1.48621846	          3.42842893	          0.01700581	          0.90763869	         -0.00329681	        -17.31612400	          1.51821485	         10.04895970	         28.56754879	          3.21696711	         -2.30282372	        -11.35501561	        -10.21403387	          4.65485628	          7.16918420	          1.33681801	         -0.02858568	         -2.81872535	          1.77890804	         20.82582423	         -3.74712122	         -3.77301459	          0.59615325	         -1.61676234	          1.12533778	        -14.42535210	         19.21032132	         -3.93796434	        -13.45165096	          6.95292324	         51.53479135	         20.14992390	         86.51662706	         86.51662706	          0.34954803	          0.05000574	          0.05000040	          0.48939520	          0.15774812	          0.06863459	          0.05002860	          0.05000329	          0.05000208	          0.06266689	          0.08221837	          0.09446337	          0.05004937	          0.05000801	          0.05002116	          0.05001634	          0.51171440	          0.07571928	          0.05000399	          0.05000856	          0.05000541	          0.05000586	          0.32398197	          0.73008353	          0.05000059	          0.05000249	          0.05000147	          0.33983890	          0.13357210	          0.13717225	          0.11461220	          0.34274957	          0.39783715	          0.26179961	          0.36937915	          0.23241243	          0.39965876	          0.05000018	          0.05901550	          0.18818313	          0.05000120	          0.05000060	          0.08221399	          0.05000035	          0.05000248	          0.06783786	          0.05901521	          0.05901586	          0.05000371	          0.05901641	          0.05901627	          0.05901220	          0.32569429	          0.05901731	          0.12658446	          0.05901523	          0.05000554	          0.12570281	          0.19377736	          0.10058974	          0.13837932	          0.17795297	          0.05000253	          0.05617212	          0.07757634	          0.05002287	          0.08185615	          0.19233530	          0.05002295	          0.05000441	          0.36286879	          0.19667385	          0.10449282	          0.05000107	          0.05000210	          0.05000202	          0.05000185	          0.06542343	          0.05595950	          0.05000616	          0.05000640	          0.08221374	          0.08220997	          0.33030710	          0.05256995	          0.15922181	          0.41938095	          0.63368926	          0.42374901	          0.05002083	          0.06623963	          0.09399385	
          0.02163675	         -2.93017424	         -1.58299082	          3.71920977	          0.03430325	          0.90707252	         -0.00311572	        -17.41984225	          1.16692833	          9.86601166	         28.18710694	          3.51705719	         -2.22553142	        -12.76396881	        -11.03894120	          3.57761506	          6.38899498	          2.22085618	         -0.04785219	         -4.04726243	          1.97117811	         23.92613734	         -4.29553027	         -3.59839900	          0.77977942	         -1.69903059	          0.50176178	        -14.37248243	         19.03586328	         -4.78402595	        -13.46807948	          6.54999550	         53.69881935	         19.63900254	         86.51662706	         86.51662706	          0.29615101	          0.05480570	          0.05901439	          0.41463536	          0.13365092	          0.05815826	          0.05005350	          0.05001153	          0.05003323	          0.05309450	          0.06966208	          0.19276878	          0.12659383	          0.05901777	          0.05899309	          0.05903231	          0.43355554	          0.06417043	          0.05017000	          0.05106950	          0.05851739	          0.05899856	          0.27449018	          0.66896634	          0.05901457	          0.05901280	          0.05000773	          0.30656108	          0.15474357	          0.16428651	          0.13139752	          0.29039047	          0.33706295	          0.22180655	          0.31295239	          0.19690967	          0.33860802	          0.05000038	          0.05000061	          0.15943607	          0.05000066	          0.05000047	          0.06965508	          0.06291589	          0.06965370	          0.06965473	          0.05000037	          0.05000146	          0.13998561	          0.05000139	          0.05000155	          0.05000191	          0.27594107	          0.05000222	          0.10724750	          0.05000078	          0.06965699	          0.10650845	          0.31213238	          0.33553550	          0.23800668	          0.21094909	          0.05002599	          0.06969514	          0.06572774	          0.09620260	          0.13499278	          0.19861980	          0.05002456	          0.06965545	          0.55946749	          0.16663069	          0.08853127	          0.06963623	          0.09283559	          0.09549001	          0.06882237	          0.06964237	          0.06965603	          0.06888060	          0.05000059	          0.06965631	          0.06965572	          0.39335508	          0.10517523	          0.14558884	          0.57491663	          0.68220935	          0.35902163	          0.05000012	          0.05612080	          0.07963525	
          0.03245513	         -2.92919507	         -1.71616995	          3.99535246	          0.05181303	          0.90659841	         -0.00293968	        -17.42178579	          0.77814262	          9.63887332	         27.74698838	          3.74301696	         -2.07717634	        -14.27575526	        -12.10959428	          2.23432246	          5.42174334	          3.10004505	         -0.04225556	         -5.32055129	          2.19180505	         27.17081919	         -4.66777415	         -3.41087207	          1.00157292	         -1.77313941	         -0.16309932	        -14.29584088	         18.83585806	         -5.62116589	        -13.50424311	          6.38784798	         55.78156452	         19.10338276	         86.51662706	         86.51662706	          0.27164573	          0.05000062	          0.05000026	          0.35730208	          0.11323500	          0.05000136	          0.05002906	          0.05000227	          0.05000108	          0.05001264	          0.05902815	          0.25303298	          0.10726266	          0.05000591	          0.05001014	          0.05001880	          0.51044802	          0.06926898	          0.05000347	          0.05000604	          0.05000341	          0.05000273	          0.23255987	          0.70274443	          0.05000050	          0.05000175	          0.05000048	          0.25973096	          0.13110547	          0.13919050	          0.11132562	          0.24602981	          0.28557261	          0.18792289	          0.26514529	          0.16682971	          0.28688251	          0.11325523	          0.09113846	          0.13508120	          0.05000194	          0.05000157	          0.05901472	          0.09156825	          0.05901329	          0.05901438	          0.34382443	          0.34890437	          0.41014709	          0.43177741	          0.29228944	          0.25756263	          0.23378847	          0.14965986	          0.13086489	          0.09704100	          0.05901995	          0.09023945	          0.26445387	          0.28428017	          0.20165220	          0.25266983	          0.05000507	          0.05908382	          0.22424577	          0.24632530	          0.22353031	          0.25478820	          0.05901592	          0.05901597	          0.47400274	          0.14117766	          0.12708428	          0.05899857	          0.07865407	          0.08090298	          0.05830912	          0.05900371	          0.05901534	          0.05835826	          0.06956793	          0.05901571	          0.05901541	          0.45198116	          0.08910876	          0.13982437	          0.48709175	          0.81536932	          0.62760325	          0.07829902	          0.09623125	          0.06747008	
